<svg id="flat_final" height="512" viewBox="0 0 512 512" width="512" xmlns="http://www.w3.org/2000/svg" data-name="flat final"><path d="m481.4 232.505a23.467 23.467 0 0 0 -19.47 10.5h-40.051a166.612 166.612 0 0 0 -9.754-44.638l27.34-11.325a16.008 16.008 0 1 0 -4.96-10.935l-26.932 11.156a165.474 165.474 0 0 0 -25.263-39.591l27.652-27.652a23.492 23.492 0 1 0 -17.24-18.116l-28.071 28.071a165.535 165.535 0 0 0 -39-25.131l11.318-27.334a16.009 16.009 0 1 0 -11.239-4.225l-11.16 26.943a166.55 166.55 0 0 0 -44.57-10.023v-39.134a23.5 23.5 0 1 0 -25 .619v38.287a166.513 166.513 0 0 0 -47.571 10.248l-11.159-26.94a15.99 15.99 0 1 0 -11.239 4.225l11.326 27.343a165.528 165.528 0 0 0 -37.922 24.2l-27.148-27.153a23.5 23.5 0 1 0 -17.24 18.116l26.577 26.584a165.545 165.545 0 0 0 -26.192 40.668l-26.932-11.161a15.991 15.991 0 1 0 -4.96 10.935l27.337 11.324a166.567 166.567 0 0 0 -9.751 44.639h-38.05a23.5 23.5 0 1 0 .619 25h37.343a166.493 166.493 0 0 0 9.836 45.628l-27.339 11.325a16.008 16.008 0 1 0 4.96 10.935l26.93-11.155a165.592 165.592 0 0 0 25.55 39.913l-27.066 27.067a23.5 23.5 0 1 0 18.116 17.239l26.647-26.647a165.485 165.485 0 0 0 38.682 24.843l-11.323 27.337a16.009 16.009 0 1 0 11.239 4.225l11.158-26.938a166.633 166.633 0 0 0 47.572 10.246v38.287a23.493 23.493 0 1 0 25 .619v-39.129a166.466 166.466 0 0 0 44.57-10.024l11.16 26.944a15.99 15.99 0 1 0 11.239-4.225l-11.325-27.342a165.572 165.572 0 0 0 39.756-25.784l27.589 27.588a23.493 23.493 0 1 0 18.111-17.239l-28.15-28.151a165.573 165.573 0 0 0 24.621-38.831l26.934 11.157a15.991 15.991 0 1 0 4.96-10.935l-27.341-11.326a166.481 166.481 0 0 0 9.838-45.627h39.352a23.495 23.495 0 1 0 20.09-35.5z" fill="#e44d44"/><g fill="#f7685f"><circle cx="171.5" cy="209.5" r="30.5"/><circle cx="182" cy="327" r="24"/><circle cx="262.5" cy="255.5" r="17.5"/><circle cx="286" cy="155" r="24"/><circle cx="355.5" cy="246.5" r="26.5"/><circle cx="299" cy="348" r="32"/></g></svg>